<svg width="981" height="360" viewBox="0 0 981 360" fill="none" xmlns="http://www.w3.org/2000/svg">
<path d="M150.734 187.263V175.92C150.734 155.284 146.504 138.813 138.044 126.508C129.585 114.204 118.946 108.051 106.129 108.051H104.206C97.1566 108.051 90.2992 110.038 83.6342 114.011C76.9691 117.857 71.8421 122.791 68.2532 128.816C64.7925 134.84 63.0621 152.592 63.0621 182.072V198.414L63.2544 200.529V208.604L63.4466 210.527V214.565C63.703 217.384 63.8311 219.435 63.8311 220.717C63.8311 231.612 67.2919 240.135 74.2133 246.288C81.2629 252.312 90.6838 255.324 102.476 255.324H104.398C118.498 255.324 129.713 248.851 138.044 235.906C146.504 222.96 150.734 206.746 150.734 187.263ZM73.8288 269.936C67.1637 269.936 63.8311 278.524 63.8311 295.699C63.8311 313.003 65.0488 323.962 67.4841 328.576C70.0476 333.318 74.0851 337.612 79.5966 341.458C85.2363 345.303 88.0562 348.571 88.0562 351.263C88.0562 357.031 79.7248 359.915 63.0621 359.915H43.8359C14.612 359.915 0.000113249 356.967 0.000113249 351.071C0.000113249 349.276 3.71718 344.79 11.1513 337.612C15.1247 333.767 18.265 325.948 20.5722 314.156C22.8793 302.492 24.0329 280.318 24.0329 247.634V167.845L23.6484 147.273C23.6484 134.712 21.9821 125.547 18.6495 119.779C17.3678 117.6 14.0353 114.652 8.65191 110.935C3.26857 107.09 0.5769 103.822 0.5769 101.13C0.5769 98.4382 2.115 96.3233 5.19119 94.7852C15.1888 89.9145 28.3908 87.4792 44.7972 87.4792C49.027 87.4792 53.3208 90.0427 57.6788 95.1697C62.1649 100.297 64.6643 102.86 65.177 102.86C67.2278 102.86 71.3294 101.13 77.4818 97.6691C83.7623 94.0802 87.0949 92.1576 87.4794 91.9013C98.5024 86.7743 108.051 84.2108 116.126 84.2108H126.124C133.302 84.2108 141.441 86.1975 150.541 90.1709C167.973 97.7332 180.47 111.897 188.033 132.661C192.519 144.837 194.762 156.694 194.762 168.229V178.996C194.762 190.916 192.326 203.157 187.456 215.718C177.843 240.584 161.564 257.503 138.621 266.475C128.88 270.321 117.536 272.243 104.591 272.243L73.8288 269.936ZM266.991 26.1476C266.991 31.7873 264.555 37.0425 259.685 41.9131C254.942 46.6556 250.2 49.0268 245.457 49.0268C244.432 49.2831 243.599 49.4113 242.958 49.4113L238.728 49.7958C232.319 49.7958 226.552 47.681 221.425 43.4512C216.426 39.2214 213.926 33.774 213.926 27.1089V23.6482C213.926 16.9831 216.554 11.4075 221.809 6.92138C227.192 2.30709 233.345 -5.70416e-05 240.266 -5.70416e-05H241.228L247.765 0.768992C251.738 0.768992 255.84 2.94796 260.069 7.3059C264.427 11.5357 266.606 15.8295 266.606 20.1875L266.991 21.9178V26.1476ZM205.851 111.897C199.186 108.692 195.854 105.68 195.854 102.86C195.854 100.04 197.2 97.7973 199.891 96.131C209.248 90.4913 224.052 87.6715 244.304 87.6715H249.879C256.801 87.6715 260.71 90.8759 261.607 97.2846C262.12 100.745 262.376 124.073 262.376 167.268C262.376 210.335 263.274 235.072 265.068 241.481C266.863 247.762 271.156 252.632 277.95 256.093C284.743 259.426 288.14 262.822 288.14 266.283C288.14 271.154 272.246 273.589 240.459 273.589L234.691 273.781H211.235C201.878 273.781 197.2 271.474 197.2 266.86C197.2 263.015 200.019 259.298 205.659 255.709C211.427 252.12 215.4 248.146 217.579 243.788C220.015 239.046 221.232 227.959 221.232 210.527L221.425 204.375V198.414L221.617 189.378V183.418L221.809 177.458C221.809 147.08 220.784 129.392 218.733 124.394C216.81 119.267 212.516 115.101 205.851 111.897ZM433.236 187.263V175.92C433.236 155.284 429.006 138.813 420.547 126.508C412.087 114.204 401.449 108.051 388.631 108.051H386.709C379.659 108.051 372.802 110.038 366.136 114.011C359.471 117.857 354.344 122.791 350.755 128.816C347.295 134.84 345.564 152.592 345.564 182.072V198.414L345.757 200.529V208.604L345.949 210.527V214.565C346.205 217.384 346.333 219.435 346.333 220.717C346.333 231.612 349.794 240.135 356.716 246.288C363.765 252.312 373.186 255.324 384.978 255.324H386.901C401 255.324 412.215 248.851 420.547 235.906C429.006 222.96 433.236 206.746 433.236 187.263ZM356.331 269.936C349.666 269.936 346.333 278.524 346.333 295.699C346.333 313.003 347.551 323.962 349.986 328.576C352.55 333.318 356.587 337.612 362.099 341.458C367.739 345.303 370.559 348.571 370.559 351.263C370.559 357.031 362.227 359.915 345.564 359.915H326.338C297.114 359.915 282.502 356.967 282.502 351.071C282.502 349.276 286.22 344.79 293.654 337.612C297.627 333.767 300.767 325.948 303.074 314.156C305.382 302.492 306.535 280.318 306.535 247.634V167.845L306.151 147.273C306.151 134.712 304.484 125.547 301.152 119.779C299.87 117.6 296.538 114.652 291.154 110.935C285.771 107.09 283.079 103.822 283.079 101.13C283.079 98.4382 284.617 96.3233 287.694 94.7852C297.691 89.9145 310.893 87.4792 327.3 87.4792C331.529 87.4792 335.823 90.0427 340.181 95.1697C344.667 100.297 347.167 102.86 347.679 102.86C349.73 102.86 353.832 101.13 359.984 97.6691C366.265 94.0802 369.597 92.1576 369.982 91.9013C381.005 86.7743 390.554 84.2108 398.629 84.2108H408.626C415.804 84.2108 423.943 86.1975 433.044 90.1709C450.475 97.7332 462.973 111.897 470.535 132.661C475.021 144.837 477.264 156.694 477.264 168.229V178.996C477.264 190.916 474.829 203.157 469.958 215.718C460.345 240.584 444.067 257.503 421.123 266.475C411.382 270.321 400.039 272.243 387.093 272.243L356.331 269.936ZM627.744 187.263V175.92C627.744 155.284 623.514 138.813 615.054 126.508C606.595 114.204 595.956 108.051 583.139 108.051H581.216C574.167 108.051 567.309 110.038 560.644 114.011C553.979 117.857 548.852 122.791 545.263 128.816C541.803 134.84 540.072 152.592 540.072 182.072V198.414L540.264 200.529V208.604L540.457 210.527V214.565C540.713 217.384 540.841 219.435 540.841 220.717C540.841 231.612 544.302 240.135 551.223 246.288C558.273 252.312 567.694 255.324 579.486 255.324H581.409C595.508 255.324 606.723 248.851 615.054 235.906C623.514 222.96 627.744 206.746 627.744 187.263ZM550.839 269.936C544.174 269.936 540.841 278.524 540.841 295.699C540.841 313.003 542.059 323.962 544.494 328.576C547.058 333.318 551.095 337.612 556.607 341.458C562.246 345.303 565.066 348.571 565.066 351.263C565.066 357.031 556.735 359.915 540.072 359.915H520.846C491.622 359.915 477.01 356.967 477.01 351.071C477.01 349.276 480.727 344.79 488.161 337.612C492.135 333.767 495.275 325.948 497.582 314.156C499.889 302.492 501.043 280.318 501.043 247.634V167.845L500.658 147.273C500.658 134.712 498.992 125.547 495.66 119.779C494.378 117.6 491.045 114.652 485.662 110.935C480.279 107.09 477.587 103.822 477.587 101.13C477.587 98.4382 479.125 96.3233 482.201 94.7852C492.199 89.9145 505.401 87.4792 521.807 87.4792C526.037 87.4792 530.331 90.0427 534.689 95.1697C539.175 100.297 541.674 102.86 542.187 102.86C544.238 102.86 548.339 101.13 554.492 97.6691C560.772 94.0802 564.105 92.1576 564.489 91.9013C575.513 86.7743 585.062 84.2108 593.137 84.2108H603.134C610.312 84.2108 618.451 86.1975 627.551 90.1709C644.983 97.7332 657.48 111.897 665.043 132.661C669.529 144.837 671.772 156.694 671.772 168.229V178.996C671.772 190.916 669.336 203.157 664.466 215.718C654.853 240.584 638.575 257.503 615.631 266.475C605.89 270.321 594.546 272.243 581.601 272.243L550.839 269.936ZM794.374 148.042V142.082C794.374 132.597 790.977 124.073 784.184 116.511C777.39 108.82 769.059 104.975 759.19 104.975H755.537C753.742 105.231 752.524 105.36 751.884 105.36C742.911 105.36 734.388 110.487 726.313 120.741C718.366 130.995 714.392 141.954 714.392 153.617V156.117C714.392 160.218 716.828 162.269 721.698 162.269C723.621 162.654 724.646 162.846 724.775 162.846L729.197 163.038H730.35L731.696 162.846L768.803 160.731L775.724 159.962C788.157 159.962 794.374 155.989 794.374 148.042ZM714.392 198.991C714.392 213.603 719.904 225.844 730.927 235.713C741.95 245.583 755.921 250.518 772.84 250.518C779.633 250.518 785.786 249.556 791.297 247.634C796.937 245.583 803.025 243.147 809.562 240.328C816.227 237.508 820.393 236.098 822.059 236.098C827.186 236.098 829.75 238.854 829.75 244.365C829.75 251.799 820.265 259.746 801.295 268.206C788.99 273.717 775.788 276.473 761.689 276.473H757.459C733.362 276.473 713.367 269.167 697.473 254.555C688.886 246.608 682.221 236.482 677.478 224.178C672.736 211.745 670.364 198.414 670.364 184.187L670.557 179.765V175.343C670.557 163.038 673.377 150.926 679.016 139.005C684.784 127.085 691.641 117.28 699.588 109.589C716.379 93.4394 736.31 85.3003 759.382 85.1721C794.245 85.1721 817.445 98.7586 828.981 125.932C832.57 134.519 834.364 142.402 834.364 149.58V153.425C834.364 162.269 830.711 168.229 823.405 171.306C816.099 174.254 798.86 176.689 771.687 178.611C744.514 180.534 729.773 181.816 727.466 182.457C718.75 184.636 714.392 190.147 714.392 198.991ZM930.241 265.514C930.241 270.513 918.642 273.012 895.442 273.012H875.062L866.987 272.628L854.875 272.435C841.288 272.435 834.495 270 834.495 265.129C834.495 261.669 837.507 258.016 843.531 254.171C849.684 250.197 853.785 245.134 855.836 238.982C858.015 232.701 859.104 214.308 859.104 183.803C859.104 153.297 858.079 134.776 856.028 128.239C854.106 121.702 851.029 117.024 846.8 114.204C839.237 109.205 835.456 105.552 835.456 103.245C835.456 100.938 836.802 98.8868 839.494 97.0923C847.44 91.709 860.899 89.0173 879.869 89.0173H883.522C890.828 89.0173 896.019 92.7344 899.095 100.169C902.171 107.474 904.671 111.127 906.593 111.127C908.516 111.127 911.784 109.333 916.398 105.744C921.141 102.155 926.781 98.5663 933.318 94.9774C939.983 91.3886 947.353 89.5941 955.428 89.5941C963.503 89.5941 969.655 91.709 973.885 95.9388C978.243 100.04 980.422 105.36 980.422 111.897C980.294 118.562 978.563 123.56 975.231 126.893C971.898 130.226 968.309 131.892 964.464 131.892C960.619 131.892 955.556 130.354 949.275 127.277C942.995 124.073 937.74 122.471 933.51 122.471C929.28 122.471 924.666 124.265 919.667 127.854C914.668 131.315 910.374 137.596 906.785 146.696C903.325 155.668 901.594 171.113 901.594 193.031C901.594 214.821 903.132 228.92 906.209 235.329C909.285 241.609 914.027 247.377 920.436 252.632C926.973 257.888 930.241 262.181 930.241 265.514Z" fill="white"/>
</svg>
