<?xml version="1.0" encoding="utf-8" ?><svg xmlns="http://www.w3.org/2000/svg" xmlns:xlink="http://www.w3.org/1999/xlink" width="1254" height="1254" viewBox="0 0 1254 1254"><path fill="#F6DDB6" d="M352.69 182.246C396.675 181.626 441.815 182.117 485.893 182.101L742.637 182.08L909.44 182.093C936.217 182.096 968.44 181.195 994.692 182.192C994.725 190.106 994.499 200.74 994.981 208.49L1019.61 208.371L1019.51 233.023C1021.95 233.312 1023.76 233.562 1026.22 233.564C1033.06 233.654 1040.25 233.379 1046.96 233.551L1047.11 582.654L1047.12 696.512C1047.12 714.716 1046.34 738.307 1047.33 755.838L1041.56 756.813C1038.61 756.858 1033.68 756.755 1030.94 757.307L1026.27 756.92C1018.69 757.815 1010.97 757.623 1003.35 757.374L982.08 757.313C982.106 766.218 982.417 777.569 981.44 786.162L962.632 786.187C962.667 792.607 962.889 799.964 962.399 806.292C942.635 806.587 922.868 806.605 903.103 806.348C896.502 805.558 884.796 805.843 877.842 805.839L835.959 805.827L693.421 805.83L515.293 805.911L464.282 805.9C455.061 805.84 441.463 805.307 432.662 806.084C413.866 806.854 391.079 805.997 371.405 806.34C370.83 799.785 371.315 792.799 371.585 786.187L349.563 786.186L349.608 757.502C341.54 757.282 332.836 757.412 324.719 757.388L303.703 757.539C303.7 750.444 304.078 739.64 303.474 732.885C303.051 727.747 303.278 716.086 303.098 710.169C303.863 695.199 303.275 680.151 303.259 665.153L303.401 591.342L303.353 352.549L303.352 277.923C303.278 265.321 302.355 245.588 303.749 233.657C310.467 233.449 317.695 233.506 324.454 233.439L328.132 233.24C327.761 225.422 327.561 216.398 327.902 208.554C335.932 208.524 344.703 208.318 352.672 208.507L352.69 182.246Z"/><path fill="#FE7619" d="M963.017 232.526L963.546 232.697L998.819 232.645C1003.95 232.636 1014.72 232.375 1019.51 233.023C1021.95 233.312 1023.76 233.562 1026.22 233.564C1033.06 233.654 1040.25 233.379 1046.96 233.551L1047.11 582.654L1047.12 696.512C1047.12 714.716 1046.34 738.307 1047.33 755.838L1041.56 756.813C1038.61 756.858 1033.68 756.755 1030.94 757.307L1026.27 756.92C1018.69 757.815 1010.97 757.623 1003.35 757.374L982.08 757.313C982.106 766.218 982.417 777.569 981.44 786.162L962.632 786.187C962.667 792.607 962.889 799.964 962.399 806.292C942.635 806.587 922.868 806.605 903.103 806.348C896.502 805.558 884.796 805.843 877.842 805.839L835.959 805.827L693.421 805.83L515.293 805.911L464.282 805.9C455.061 805.84 441.463 805.307 432.662 806.084C413.866 806.854 391.079 805.997 371.405 806.34C370.83 799.785 371.315 792.799 371.585 786.187L349.563 786.186L349.608 757.502C341.54 757.282 332.836 757.412 324.719 757.388L303.703 757.539C303.7 750.444 304.078 739.64 303.474 732.885C303.051 727.747 303.278 716.086 303.098 710.169C303.863 695.199 303.275 680.151 303.259 665.153L303.401 591.342L303.353 352.549L303.352 277.923C303.278 265.321 302.355 245.588 303.749 233.657C310.467 233.449 317.695 233.506 324.454 233.439L328.132 233.24C331.405 232.729 332.671 232.605 335.976 232.626C346.367 232.699 357.281 232.938 367.628 232.717L370.19 232.786C375.421 233.306 382.158 233.356 387.458 233.137C392.707 233.022 402.126 231.942 406.275 234.236C407.626 236.369 407.182 235.857 407.184 238.833C407.12 242.227 407.028 245.579 407.147 248.975C407.181 253.976 407.53 269.966 406.676 274.289L369.254 274.275L369.252 391.705C369.224 411.59 368.317 434.685 369.303 454.191L369.215 630.442C369.224 656.807 369.753 684.873 369.212 711.112C376.748 712.099 382.492 711.941 390.062 711.767C390.176 714.669 390.23 719.286 390.554 722.028L390.663 731.754C393.67 733.045 406.326 732.825 410.304 732.806L410.229 757.459L842.524 757.446L866.423 757.466L890.19 757.453L914.758 757.444L940.502 757.456L940.417 732.921C944.109 732.91 952.928 732.627 956.203 732.94C957.753 732.756 958.575 732.854 959.785 731.926C961.491 727.864 960.364 716.883 960.574 711.238C965.403 711.677 976.325 712.245 980.639 711.104L981.563 709.438C980.541 691.164 981.397 673.717 981.495 655.511L981.53 567.123L981.536 274.368L941.667 274.295C940.823 268.996 941.185 255.874 941.206 250.056C941.182 246.336 941.075 242.556 941.005 238.832C941.013 237.983 940.94 235.639 941.539 235.155C946.564 231.1 956.546 233.619 963.017 232.526Z"/><path fill="#B13900" d="M371.585 786.187L767.159 786.195C831.639 786.201 898.311 787.111 962.632 786.187C962.667 792.607 962.889 799.964 962.399 806.292C942.635 806.587 922.868 806.605 903.103 806.348C896.502 805.558 884.796 805.843 877.842 805.839L835.959 805.827L693.421 805.83L515.293 805.911L464.282 805.9C455.061 805.84 441.463 805.307 432.662 806.084C413.866 806.854 391.079 805.997 371.405 806.34C370.83 799.785 371.315 792.799 371.585 786.187Z"/><path fill="#B13900" d="M303.749 233.657C310.467 233.449 317.695 233.506 324.454 233.439L324.485 274.328L324.499 732.882C324.426 738.729 323.97 751.95 324.719 757.388L303.703 757.539C303.7 750.444 304.078 739.64 303.474 732.885C303.051 727.747 303.278 716.086 303.098 710.169C303.863 695.199 303.275 680.151 303.259 665.153L303.401 591.342L303.353 352.549L303.352 277.923C303.278 265.321 302.355 245.588 303.749 233.657Z"/><path fill="#B13900" d="M1026.22 233.564C1033.06 233.654 1040.25 233.379 1046.96 233.551L1047.11 582.654L1047.12 696.512C1047.12 714.716 1046.34 738.307 1047.33 755.838L1041.56 756.813C1038.61 756.858 1033.68 756.755 1030.94 757.307L1026.27 756.92L1026.24 732.883L1026.3 710.219L1026.02 321.64L1026.13 264.151C1026.16 259.996 1026.92 235.756 1026.22 233.564Z"/><path fill="#FE983C" d="M963.546 232.697L998.819 232.645C1003.95 232.636 1014.72 232.375 1019.51 233.023C1021.95 233.312 1023.76 233.562 1026.22 233.564C1026.92 235.756 1026.16 259.996 1026.13 264.151L1026.02 321.64L1026.3 710.219L1015.13 710.355C1015.65 676.426 1015.17 641.014 1015.14 606.962L1014.83 371.498L1014.67 297.314C1014.62 281.406 1014.29 264.508 1015.07 248.692C997.017 248.457 978.959 248.465 960.904 248.715C960.786 243.6 960.04 236.536 963.546 232.697Z"/><path fill="#FE983C" d="M324.485 274.328L335.428 274.381L335.57 574.3L335.585 689.807C335.604 703.94 336.13 718.836 335.966 732.784L324.499 732.882L324.485 274.328Z"/><path fill="#FE983C" d="M367.628 232.717L370.19 232.786C375.421 233.306 382.158 233.356 387.458 233.137L387.461 248.607L335.927 248.536C335.823 243.233 335.839 237.928 335.976 232.626C346.367 232.699 357.281 232.938 367.628 232.717Z"/><path fill="#E4BC84" d="M390.663 731.754C393.67 733.045 406.326 732.825 410.304 732.806L410.229 757.459L391.066 757.467C391.134 750.626 391.471 738.929 390.353 732.572L390.663 731.754Z"/><path fill="#FE983C" d="M960.574 711.238C965.403 711.677 976.325 712.245 980.639 711.104L981.563 709.438C981.731 717.901 981.68 724.434 980.832 732.961C973.849 732.96 962.954 733.338 956.203 732.94C957.753 732.756 958.575 732.854 959.785 731.926C961.491 727.864 960.364 716.883 960.574 711.238Z"/><path fill="#FE983C" d="M369.212 711.112C376.748 712.099 382.492 711.941 390.062 711.767C390.176 714.669 390.23 719.286 390.554 722.028L390.663 731.754L390.353 732.572C385.908 733.074 374.224 732.834 369.28 732.84C369.297 725.597 369.274 718.354 369.212 711.112Z"/><path fill="#FE983C" d="M963.017 232.526L963.546 232.697C960.04 236.536 960.786 243.6 960.904 248.715C954.881 249.025 947.827 249.214 941.907 249.873C941.911 255.984 942.254 268.732 941.667 274.295C940.823 268.996 941.185 255.874 941.206 250.056C941.182 246.336 941.075 242.556 941.005 238.832C941.013 237.983 940.94 235.639 941.539 235.155C946.564 231.1 956.546 233.619 963.017 232.526Z"/><path fill="#FE983C" d="M387.458 233.137C392.707 233.022 402.126 231.942 406.275 234.236C407.626 236.369 407.182 235.857 407.184 238.833C407.12 242.227 407.028 245.579 407.147 248.975C407.181 253.976 407.53 269.966 406.676 274.289C406.054 269.795 406.464 254.244 406.499 249.151L387.461 248.607L387.458 233.137Z"/><path fill="#FE983C" d="M1026.3 710.219L1026.24 732.883L1014.88 732.918C1014.77 725.396 1014.85 717.872 1015.13 710.355L1026.3 710.219Z"/><path fill="#B13900" d="M352.69 182.246C396.675 181.626 441.815 182.117 485.893 182.101L742.637 182.08L909.44 182.093C936.217 182.096 968.44 181.195 994.692 182.192C994.725 190.106 994.499 200.74 994.981 208.49L1019.61 208.371L1019.51 233.023C1014.72 232.375 1003.95 232.636 998.819 232.645L963.546 232.697L963.017 232.526C956.546 233.619 946.564 231.1 941.539 235.155C940.94 235.639 941.013 237.983 941.005 238.832C877.381 238.167 813.751 238.141 750.126 238.755L407.184 238.833C407.182 235.857 407.626 236.369 406.275 234.236C402.126 231.942 392.707 233.022 387.458 233.137C382.158 233.356 375.421 233.306 370.19 232.786L367.628 232.717C357.281 232.938 346.367 232.699 335.976 232.626C332.671 232.605 331.405 232.729 328.132 233.24C327.761 225.422 327.561 216.398 327.902 208.554C335.932 208.524 344.703 208.318 352.672 208.507L352.69 182.246Z"/><path fill="#FE7619" d="M384.437 208.187C384.552 206.233 384.801 204.406 385.032 202.465C385.03 205.951 384.967 209.663 385.054 213.127L772.499 213.102L900.526 213.162C918.321 213.139 946.055 213.879 963.129 212.877C963.14 216.588 962.492 229.533 963.017 232.526C956.546 233.619 946.564 231.1 941.539 235.155C940.94 235.639 941.013 237.983 941.005 238.832C877.381 238.167 813.751 238.141 750.126 238.755L407.184 238.833C407.182 235.857 407.626 236.369 406.275 234.236C402.126 231.942 392.707 233.022 387.458 233.137C382.158 233.356 375.421 233.306 370.19 232.786C374.413 232.543 380.443 232.746 384.797 232.758C385.107 224.209 384.83 216.685 384.437 208.187Z"/><path fill="#FE983C" d="M385.032 202.465C386.944 199.973 410.323 200.741 414.663 200.728L472.79 200.785L653.509 200.826L873.192 200.828L927.915 200.762C936.09 200.721 955.425 200.164 963 201.583L963.129 212.877C946.055 213.879 918.321 213.139 900.526 213.162L772.499 213.102L385.054 213.127C384.967 209.663 385.03 205.951 385.032 202.465Z"/><path fill="#D24F04" d="M368.088 208.903C373.704 208.817 378.852 208.539 384.437 208.187C384.83 216.685 385.107 224.209 384.797 232.758C380.443 232.746 374.413 232.543 370.19 232.786L367.628 232.717C368.384 227.558 368.086 214.471 368.088 208.903Z"/><path fill="#FAE9CA" d="M407.184 238.833L750.126 238.755C813.751 238.141 877.381 238.167 941.005 238.832C941.075 242.556 941.182 246.336 941.206 250.056C934.785 251.327 925.642 250.975 918.939 250.962L887.275 250.915L757.328 250.968L526.92 250.946L461.985 250.923C441.014 250.934 428.146 251.829 407.147 248.975C407.028 245.579 407.12 242.227 407.184 238.833Z"/><path fill="#E4BC84" d="M369.303 454.191C370.307 460.76 369.954 474.397 369.942 481.508L369.846 527.467L369.853 687.692C376.619 687.824 383.387 687.775 390.151 687.545C390.176 697.131 391.17 713.549 390.554 722.028C390.23 719.286 390.176 714.669 390.062 711.767C382.492 711.941 376.748 712.099 369.212 711.112C369.753 684.873 369.224 656.807 369.215 630.442L369.303 454.191Z"/><path fill="#8C3200" d="M890.74 732.617C898.771 732.797 906.805 732.848 914.838 732.77L914.758 757.444L890.19 757.453C890.086 752.672 889.485 736.418 890.74 732.617Z"/><path fill="#B13900" d="M866.388 732.683C870.582 732.525 886.953 732.022 890.74 732.617C889.485 736.418 890.086 752.672 890.19 757.453L866.423 757.466C866.579 749.206 866.567 740.943 866.388 732.683Z"/><path fill="#8C3200" d="M842.611 732.778C850.314 732.46 858.62 732.643 866.388 732.683C866.567 740.943 866.579 749.206 866.423 757.466L842.524 757.446L842.611 732.778Z"/><path fill="#E4BC84" d="M940.559 711.451C946.065 711.085 955.41 710.361 960.574 711.238C960.364 716.883 961.491 727.864 959.785 731.926C958.575 732.854 957.753 732.756 956.203 732.94C952.928 732.627 944.109 732.91 940.417 732.921L940.559 711.451Z"/><path fill="#0B0F1C" d="M434.451 280.245L915.258 280.223L915.315 301.954C922.559 301.975 930.235 301.873 937.44 302.052C937.708 312.4 937.941 324.36 936.295 334.631C935.568 367.579 936.095 398.809 936.14 431.668L936.146 587.979C936.145 603.516 936.097 619.091 936.257 634.625C936.306 639.36 938.251 661.612 936.83 664.551C935.768 671.669 935.974 678.689 936.188 685.874C935.524 686.04 934.74 686.307 934.105 686.301C930.828 685.528 919.551 685.658 915.5 685.626C915.601 680.795 915.967 670.781 915.146 666.48C914.673 671.964 914.826 679.549 914.778 685.199C910.613 684.99 901.754 684.143 898.361 685.607C897.826 687.082 897.914 687.286 896.808 688.338C894.968 688.425 894.605 688.34 892.841 688.96C891.121 691.667 892.036 706.285 892.124 710.284C853.545 709.332 813.325 709.99 774.57 709.992L564.067 709.994L493.802 710.05C486.207 710.092 462.928 710.794 456.979 709.575C455.665 707.976 456.479 706.808 456.016 705.063C455.39 702.707 454.87 704.637 451.809 702.949C450.563 698.697 455.413 693.868 456.345 688.173L434.609 688.248C434.625 682.405 434.928 672.089 434.191 666.627C433.591 671.414 433.833 680.934 433.818 686.089C427.469 686.584 419.423 686.2 412.919 686.106C413.007 680.06 413.334 670.491 412.379 664.745C412.213 661.695 412.74 657.268 412.865 654.108C413.666 633.891 413.392 613.63 413.388 593.39L413.285 409.704C413.275 395.232 413.381 380.759 413.603 366.289C413.731 356.429 414.011 336.769 412.327 327.418C411.728 319.758 411.996 309.81 412.012 301.951L434.52 301.972L434.451 280.245Z"/><path fill="#AB7D54" d="M434.451 280.245L915.258 280.223L915.315 301.954C922.559 301.975 930.235 301.873 937.44 302.052C937.708 312.4 937.941 324.36 936.295 334.631C936.323 331.96 936.367 331.054 935.915 328.462C932.738 325.656 908.306 326.873 902.509 326.95L902.55 302.029C883.943 301.646 865.13 302.031 846.492 302.041L751.678 301.953L447.677 302.077L447.65 326.988C441.812 327.006 416.119 326.433 412.327 327.418C411.728 319.758 411.996 309.81 412.012 301.951L434.52 301.972L434.451 280.245Z"/><path fill="#FAE9CA" d="M412.379 664.745C416.211 664.554 431.774 663.366 434.077 665.257L434.191 666.627C433.591 671.414 433.833 680.934 433.818 686.089C427.469 686.584 419.423 686.2 412.919 686.106C413.007 680.06 413.334 670.491 412.379 664.745Z"/><path fill="#FAE9CA" d="M915.146 666.48C915.098 665.864 915.094 666.308 915.556 665.212C919.703 663.455 931.806 664.374 936.83 664.551C935.768 671.669 935.974 678.689 936.188 685.874C935.524 686.04 934.74 686.307 934.105 686.301C930.828 685.528 919.551 685.658 915.5 685.626C915.601 680.795 915.967 670.781 915.146 666.48Z"/><path fill="#4A30DA" d="M620.296 374.701L620.212 372.906C619.945 366.479 618.802 357.949 623.241 353.103C625.895 351.688 633.704 351.955 636.892 351.996C666.213 352.377 695.705 350.798 724.973 352.256C725.612 352.287 728.009 354.63 728.569 355.167L728.573 374.701C753.743 373.79 753.182 372.391 752.597 397.901C760.094 398.139 768.307 398.01 775.856 398.033C775.877 402.869 775.823 407.705 775.696 412.539C775.833 422.577 775.879 432.616 775.836 442.655L797.125 442.616C802.19 442.522 814.703 441.802 818.869 443.491C819.484 444.256 819.65 444.258 819.923 445.117C820.868 450.097 820.513 460.022 820.427 465.34C825.2 465.3 838.635 464.931 842.711 465.818L842.627 487.952L851.253 488.098L865.524 488.038L865.433 510.266C865.682 529.804 866.365 551.793 864.328 571.045C857.588 572.296 849.547 571.968 842.618 571.868C843.134 596.04 844.244 596.326 819.941 595.744C820.134 620.3 820.98 619.607 796.533 618.533C796.69 627.236 796.518 633.088 795.623 641.656L705.299 641.674C704.523 634.35 704.763 626.205 704.793 618.79L644.173 618.778L644.131 641.658L586.849 641.708C575.644 641.727 562.198 642.085 551.193 641.233C550.929 634.177 551.106 626.048 551.116 618.92L528.543 618.843C527.484 611.308 527.756 603.392 527.809 595.767C503.58 596.157 504.437 596.07 505.029 571.859C496.871 572.133 491.599 572.373 483.649 570.831C482.701 564.256 482.97 552.352 482.994 545.587L483.042 510.244L483.245 488.001C488.643 488.011 495.498 487.728 500.715 488.481C502.908 488.332 502.865 488.416 504.948 487.396C505.492 480.439 505.289 472.649 505.267 465.611C512.816 465.214 519.465 466.058 527.246 465.177L527.599 462.761C523.724 439.347 530.706 442.026 550.662 442.622L573.073 442.665L573.061 420.785L573.02 397.995L596.458 398.035C596.61 372.164 593.895 374.079 620.296 374.701Z"/><path fill="#654AEE" d="M620.296 374.701L620.212 372.906C619.945 366.479 618.802 357.949 623.241 353.103C625.895 351.688 633.704 351.955 636.892 351.996C666.213 352.377 695.705 350.798 724.973 352.256C725.612 352.287 728.009 354.63 728.569 355.167L728.573 374.701C753.743 373.79 753.182 372.391 752.597 397.901C760.094 398.139 768.307 398.01 775.856 398.033C775.877 402.869 775.823 407.705 775.696 412.539C775.323 415.959 775.276 417.516 775.387 420.957C767.428 421.269 759.775 421.027 751.817 420.844C751.711 413.414 751.735 405.982 751.889 398.553C742.953 399.071 737.022 399.144 727.951 398.517C727.968 390.194 727.815 384.124 727.279 375.837C692.381 374.713 655.619 376.948 620.969 375.321C620.955 382.858 620.868 390.516 620.942 398.041C613.079 398.145 605.006 398.154 597.165 398.373C597.536 405.859 597.229 413.312 597.034 420.805C589.144 420.847 580.915 421 573.061 420.785L573.02 397.995L596.458 398.035C596.61 372.164 593.895 374.079 620.296 374.701Z"/><path fill="#654AEE" d="M527.599 462.761C523.724 439.347 530.706 442.026 550.662 442.622C551.126 450.653 551.165 457.735 551.063 465.798C544.589 465.928 534.374 466.546 528.394 464.86C527.923 463.838 527.925 463.871 527.599 462.761Z"/><path fill="#654AEE" d="M797.125 442.616C802.19 442.522 814.703 441.802 818.869 443.491C819.484 444.256 819.65 444.258 819.923 445.117C819.581 450.298 819.841 459.682 819.753 465.379C812.285 465.502 804.603 465.412 797.115 465.405L797.125 442.616Z"/><path fill="#654AEE" d="M505.267 465.611C512.816 465.214 519.465 466.058 527.246 465.177C528.149 469.161 527.871 483.215 527.84 487.986C523.859 488.088 507.206 488.963 504.948 487.396C505.492 480.439 505.289 472.649 505.267 465.611Z"/><path fill="#654AEE" d="M820.053 466.011C827.574 465.686 835.375 466.324 842.711 465.818L842.627 487.952C835.223 488.288 827.359 488.08 819.915 488.015C819.871 480.68 819.917 473.345 820.053 466.011Z"/><path fill="#654AEE" d="M851.253 488.098L865.524 488.038L865.433 510.266L842.532 510.023C842.36 503.039 842.513 495.735 842.555 488.726L851.253 488.098Z"/><path fill="#654AEE" d="M483.245 488.001C488.643 488.011 495.498 487.728 500.715 488.481C502.08 488.78 503.37 488.736 503.944 489.685C506.848 494.48 505.277 504.442 504.797 510.05L483.042 510.244L483.245 488.001Z"/><path fill="#FDFDFE" d="M713.435 460.123C717.888 459.916 722.621 459.976 727.104 459.958C740.049 468.06 739.462 475.578 739.261 489.358C739.187 494.463 739.222 499.876 739.205 504.999L739.03 566.588C735.243 571.904 731.575 576.687 725.116 578.715L710.841 578.603C705.044 574.943 702.731 572.264 698.167 567.09C697.836 536.72 697.333 502.318 698.502 472.085L698.988 471.384C702.529 466.378 707.196 461.135 713.435 460.123Z"/><path fill="#FDFDFE" d="M621.134 460.032C625.899 459.847 631.109 459.959 635.91 459.967C641.574 463.544 644.756 467.266 648.296 472.78C648.968 504.619 648.401 535.315 648.43 567.101C644.124 572.07 641.452 574.889 636.077 578.633C630.699 578.777 625.026 578.671 619.624 578.658C614.998 574.853 611.552 571.472 607.444 567.157L607.455 472.921C610.736 467.117 614.516 461.923 621.134 460.032Z"/><path fill="#E4BC84" d="M936.188 685.874L936.209 686.674C931.408 687.22 922.42 687.173 917.582 686.798L917.616 686.445C922.841 686.081 928.813 686.263 934.105 686.301C934.74 686.307 935.524 686.04 936.188 685.874Z"/><path fill="#FE7619" d="M432.662 806.084C441.463 805.307 455.061 805.84 464.282 805.9L515.293 805.911L693.421 805.83L835.959 805.827L877.842 805.839C884.796 805.843 896.502 805.558 903.103 806.348C903.201 812.721 903.745 829.459 902.631 834.9C902.573 838.152 902.016 846.335 903.718 848.845L904.362 849.248C911.282 849.256 919.909 849.482 926.684 849.153C938.257 849.138 949.831 849.229 961.403 849.426C977.635 849.371 993.867 849.211 1010.1 848.945L1010.6 849.145L1017.23 849.191L1030.51 849.253L1030.5 868.739C1034.81 869.486 1036.09 869.489 1040.47 869.403C1040.46 877.439 1039.68 910.438 1041.42 916.355C1041.56 923.613 1041.59 930.874 1041.51 938.133L1041.45 965.644C1041.61 967.221 1041.54 967.782 1042.1 969.258C1042.23 972.912 1041.86 980.711 1038.53 982.794C1035.73 981.149 1023.37 981.72 1019.61 981.919C1019.5 989.579 1019.45 997.24 1019.47 1004.9C1012.78 1004.82 1006.09 1004.76 999.398 1004.75L962.482 1004.76C961.949 1011.71 962.178 1020.08 962.553 1027.08L962.412 1028L963.037 1028.49L982.879 1028.57L983.037 1054.23C983.091 1058.74 983.432 1066.07 983.068 1070.35L1039.26 1070.38C1047.33 1070.45 1054.31 1071.02 1062.53 1070.89L1062.51 1092.07C1049.83 1091.93 1037.15 1091.93 1024.47 1092.05L1024.8 1112.46C993.302 1111.78 960.21 1112.31 928.58 1112.37L768.822 1112.56L319.397 1113.02C319.092 1106.71 319.322 1098.33 319.323 1091.87C306.349 1091.7 293.373 1091.72 280.399 1091.94L280.342 1070.92L349.588 1070.45L349.56 1028.63L369.201 1028.56L369.785 1028.1C372.568 1028.03 376.686 1027.8 379.356 1027.96C382.17 1027.6 387.545 1027.59 390.596 1027.51L390.771 1024.53C390.367 1019.15 390.712 1010.1 390.969 1004.78L369.958 1004.89C361.934 1004.43 350.441 1004.78 342.153 1004.78L321.65 1004.82C321.875 996.708 321.917 990.189 321.57 982.085L320.698 981.447C314.392 981.847 305.237 981.593 298.724 981.584L298.72 869.339L311.696 869.169L311.644 849.241C318.197 849.136 324.752 849.106 331.306 849.151L332.336 849.093C344.196 849.81 359.965 849.48 371.965 849.258L374.904 849.29L390.853 849.293L433.48 849.249C434.229 845.317 434.125 837.665 434.189 833.384C434.016 827.142 434.149 820.865 434.224 814.619L432.662 806.084ZM618.459 1048.93L727.954 1048.91C727.485 1035.12 727.934 1018.78 727.996 1004.8C696.543 1003.47 664.13 1005.53 632.586 1004.69C628.146 1004.57 623.028 1004.76 618.573 1004.95L618.459 1048.93Z"/><path fill="#B5A8C2" d="M773.273 1004.78L941.117 1004.75C948.032 1004.73 955.62 1004.57 962.482 1004.76C961.949 1011.71 962.178 1020.08 962.553 1027.08L962.412 1028L963.037 1028.49L982.879 1028.57L983.037 1054.23C983.091 1058.74 983.432 1066.07 983.068 1070.35L1039.26 1070.38C1047.33 1070.45 1054.31 1071.02 1062.53 1070.89L1062.51 1092.07C1049.83 1091.93 1037.15 1091.93 1024.47 1092.05L1024.8 1112.46C993.302 1111.78 960.21 1112.31 928.58 1112.37L768.822 1112.56L319.397 1113.02C319.092 1106.71 319.322 1098.33 319.323 1091.87C306.349 1091.7 293.373 1091.72 280.399 1091.94L280.342 1070.92L349.588 1070.45L349.56 1028.63L369.201 1028.56L369.785 1028.1C372.568 1028.03 376.686 1027.8 379.356 1027.96C382.17 1027.6 387.545 1027.59 390.596 1027.51L390.771 1024.53C390.367 1019.15 390.712 1010.1 390.969 1004.78L502.888 1004.69C525.357 1004.69 551.019 1004.1 573.171 1004.74C587.621 1004.67 604.357 1004.06 618.573 1004.95L618.459 1048.93L727.954 1048.91C727.485 1035.12 727.934 1018.78 727.996 1004.8C743.088 1004.68 758.181 1004.67 773.273 1004.78Z"/><path fill="#8C3200" d="M573.171 1004.74C587.621 1004.67 604.357 1004.06 618.573 1004.95L618.459 1048.93C618.414 1056.75 618.351 1064.34 618.987 1072.15L598.23 1072.11L598.15 1091.32C595.414 1091.34 591.47 1091.22 588.875 1091.65L573.909 1091.35L553.385 1091.33L349.597 1091.74L349.588 1070.45L349.56 1028.63L369.201 1028.56L369.785 1028.1C372.568 1028.03 376.686 1027.8 379.356 1027.96C382.17 1027.6 387.545 1027.59 390.596 1027.51L390.771 1024.53C390.367 1019.15 390.712 1010.1 390.969 1004.78L502.888 1004.69C525.357 1004.69 551.019 1004.1 573.171 1004.74Z"/><path fill="#FE7619" d="M390.596 1027.51C397.268 1027.71 404.344 1028.04 410.984 1027.85C412.927 1030.44 411.636 1044.25 412.226 1048.87C457.908 1048.87 507.596 1047.93 552.965 1048.91C553.035 1056.22 553.047 1063.53 553.001 1070.85L553.355 1071C552.275 1075.18 553.102 1086.45 553.385 1091.33L349.597 1091.74L349.588 1070.45L349.56 1028.63L369.201 1028.56L369.785 1028.1C372.568 1028.03 376.686 1027.8 379.356 1027.96C382.17 1027.6 387.545 1027.59 390.596 1027.51Z"/><path fill="#8C3200" d="M349.56 1028.63L369.201 1028.56L369.161 1049.1C369.077 1053.44 368.42 1067.17 369.815 1070.54C371.117 1071.08 370.527 1070.99 371.542 1071.02C379.418 1071.87 392.719 1071.43 400.934 1071.36L445.146 1071.26L512.884 1071.54C525.134 1071.53 541.024 1071.73 553.001 1070.85L553.355 1071C552.275 1075.18 553.102 1086.45 553.385 1091.33L349.597 1091.74L349.588 1070.45L349.56 1028.63Z"/><path fill="#E45F0E" d="M390.596 1027.51C397.268 1027.71 404.344 1028.04 410.984 1027.85C412.927 1030.44 411.636 1044.25 412.226 1048.87C404.868 1048.91 397.511 1048.88 390.154 1048.77C389.98 1041.67 390.322 1035.23 390.656 1028.14C386.429 1028.25 383.563 1028.25 379.356 1027.96C382.17 1027.6 387.545 1027.59 390.596 1027.51Z"/><path fill="#FE983C" d="M369.161 1049.1C373.61 1048.98 386.126 1048.5 390.008 1049.19C389.978 1056.25 390.078 1063.81 389.871 1070.82C384.771 1070.82 376.377 1070.56 371.542 1071.02C370.527 1070.99 371.117 1071.08 369.815 1070.54C368.42 1067.17 369.077 1053.44 369.161 1049.1Z"/><path fill="#D24F04" d="M410.984 1027.85C452.386 1026.92 497.821 1029.83 539.096 1027.95L552.985 1027.93L552.965 1048.91C507.596 1047.93 457.908 1048.87 412.226 1048.87C411.636 1044.25 412.927 1030.44 410.984 1027.85Z"/><path fill="#4B1C00" d="M573.171 1004.74C587.621 1004.67 604.357 1004.06 618.573 1004.95L618.459 1048.93C618.414 1056.75 618.351 1064.34 618.987 1072.15L598.23 1072.11L598.15 1091.32C595.414 1091.34 591.47 1091.22 588.875 1091.65L573.909 1091.35L553.385 1091.33C553.102 1086.45 552.275 1075.18 553.355 1071L574.726 1070.99C576.839 1070.99 579.298 1070.91 581.377 1071C587.317 1070.88 592.355 1071.21 598.258 1071.58C598.477 1057.25 598.249 1042.33 598.219 1027.96C590.01 1027.82 581.398 1027.97 573.156 1027.99L573.204 1016.9L573.171 1004.74Z"/><path fill="#682600" d="M574.726 1070.99C576.839 1070.99 579.298 1070.91 581.377 1071C578.687 1071.37 576.751 1071.58 574.042 1071.71C572.802 1080.11 572.947 1082.87 573.909 1091.35L553.385 1091.33C553.102 1086.45 552.275 1075.18 553.355 1071L574.726 1070.99Z"/><path fill="#7B2B00" d="M390.969 1004.78L502.888 1004.69C525.357 1004.69 551.019 1004.1 573.171 1004.74L573.204 1016.9L391.249 1017.1C391.14 1019.35 391.093 1022.38 390.771 1024.53C390.367 1019.15 390.712 1010.1 390.969 1004.78Z"/><path fill="#A13600" d="M539.096 1027.95C546.963 1026.15 563.792 1028.63 572.334 1029.59C573.097 1042.62 572.42 1058.97 574.726 1070.99L553.355 1071L553.001 1070.85C553.047 1063.53 553.035 1056.22 552.965 1048.91L552.985 1027.93L539.096 1027.95Z"/><path fill="#8C3200" d="M773.273 1004.78L941.117 1004.75C948.032 1004.73 955.62 1004.57 962.482 1004.76C961.949 1011.71 962.178 1020.08 962.553 1027.08L962.412 1028L963.037 1028.49C963.164 1035.48 963.221 1042.47 963.208 1049.46C963.471 1055.16 964.109 1061.74 963.251 1067.4C962.736 1070.8 961.571 1071.2 958.419 1071.03C946.586 1072.04 925.929 1071.39 913.644 1071.37L836.786 1071.41C828.951 1071.41 812.001 1070.85 804.811 1071.44C800.87 1071.86 796.984 1071.69 793.015 1071.64C786.361 1071.58 780.24 1071.61 773.602 1070.96L773.168 1071.12C773.525 1077.94 773.217 1084.18 772.808 1090.97C770.404 1090.95 759.581 1090.55 758.178 1091.5L748.528 1091.72C748.699 1084.87 748.975 1078.97 748.217 1072.14L727.927 1072.23C728.008 1064.46 728.017 1056.68 727.954 1048.91C727.485 1035.12 727.934 1018.78 727.996 1004.8C743.088 1004.68 758.181 1004.67 773.273 1004.78Z"/><path fill="#FE7619" d="M793.588 1028.16C828.972 1026.76 864.84 1027.67 900.251 1027.58C913.23 1027.54 927.684 1028.21 940.513 1027.81C947.248 1027.92 955.998 1027.67 962.412 1028L963.037 1028.49C963.164 1035.48 963.221 1042.47 963.208 1049.46C963.471 1055.16 964.109 1061.74 963.251 1067.4C962.736 1070.8 961.571 1071.2 958.419 1071.03C946.586 1072.04 925.929 1071.39 913.644 1071.37L836.786 1071.41C828.951 1071.41 812.001 1070.85 804.811 1071.44C801.6 1071.02 796.593 1071.13 793.222 1071.12C792.281 1066.82 793.508 1034.97 793.588 1028.16Z"/><path fill="#D24F04" d="M793.588 1028.16C828.972 1026.76 864.84 1027.67 900.251 1027.58C913.23 1027.54 927.684 1028.21 940.513 1027.81C940.487 1033.61 940.185 1043.29 940.708 1048.73L844.679 1048.94C829.926 1048.93 807.608 1048.24 793.538 1049.16C793.539 1054.82 793.801 1065.92 793.222 1071.12C792.281 1066.82 793.508 1034.97 793.588 1028.16Z"/><path fill="#FE983C" d="M941.132 1050.05L963.208 1049.46C963.471 1055.16 964.109 1061.74 963.251 1067.4C962.736 1070.8 961.571 1071.2 958.419 1071.03C954.175 1070.58 945.686 1070.82 941.129 1070.81C941.246 1063.74 941.32 1057.13 941.132 1050.05Z"/><path fill="#4B1C00" d="M727.996 1004.8C743.088 1004.68 758.181 1004.67 773.273 1004.78L773.305 1016.99L773.382 1027.32C764.976 1028.13 756.958 1027.95 748.525 1027.92C748.407 1042.47 748.563 1057.43 748.314 1071.91C756.459 1071.15 764.991 1070.62 773.168 1071.12C773.525 1077.94 773.217 1084.18 772.808 1090.97C770.404 1090.95 759.581 1090.55 758.178 1091.5L748.528 1091.72C748.699 1084.87 748.975 1078.97 748.217 1072.14L727.927 1072.23C728.008 1064.46 728.017 1056.68 727.954 1048.91C727.485 1035.12 727.934 1018.78 727.996 1004.8Z"/><path fill="#7B2B00" d="M773.273 1004.78L941.117 1004.75C940.902 1008.76 940.591 1013.07 940.496 1017.06C927.273 1015.78 899.675 1016.98 885.091 1017L773.305 1016.99L773.273 1004.78Z"/><path fill="#A13600" d="M773.842 1028.06C778.475 1028.8 789.088 1029.48 793.588 1028.16C793.508 1034.97 792.281 1066.82 793.222 1071.12C796.593 1071.13 801.6 1071.02 804.811 1071.44C800.87 1071.86 796.984 1071.69 793.015 1071.64C786.361 1071.58 780.24 1071.61 773.602 1070.96C772.164 1063.3 773.787 1037.89 773.842 1028.06Z"/><path fill="#4B1C00" d="M941.117 1004.75C948.032 1004.73 955.62 1004.57 962.482 1004.76C961.949 1011.71 962.178 1020.08 962.553 1027.08C958.447 1027.63 944.781 1027.47 940.5 1027.11L940.496 1017.06C940.591 1013.07 940.902 1008.76 941.117 1004.75Z"/><path fill="#9A8BA8" d="M618.459 1048.93L727.954 1048.91C728.017 1056.68 728.008 1064.46 727.927 1072.23L748.217 1072.14C748.975 1078.97 748.699 1084.87 748.528 1091.72C740.434 1092.32 728.1 1091.96 719.782 1091.95L668.449 1091.91L620.267 1091.98C610.958 1092.01 597.87 1092.32 588.875 1091.65C591.47 1091.22 595.414 1091.34 598.15 1091.32L598.23 1072.11L618.987 1072.15C618.351 1064.34 618.414 1056.75 618.459 1048.93Z"/><path fill="#8C3200" d="M963.037 1028.49L982.879 1028.57L983.037 1054.23C983.091 1058.74 983.432 1066.07 983.068 1070.35C982.546 1076.93 982.746 1085.06 982.739 1091.76C947.219 1091.03 910.418 1091.88 874.757 1091.66C848.294 1091.51 819.067 1090.52 792.972 1091.36L793.015 1071.64C796.984 1071.69 800.87 1071.86 804.811 1071.44C812.001 1070.85 828.951 1071.41 836.786 1071.41L913.644 1071.37C925.929 1071.39 946.586 1072.04 958.419 1071.03C961.571 1071.2 962.736 1070.8 963.251 1067.4C964.109 1061.74 963.471 1055.16 963.208 1049.46C963.221 1042.47 963.164 1035.48 963.037 1028.49Z"/><path fill="#682600" d="M773.168 1071.12L773.602 1070.96C780.24 1071.61 786.361 1071.58 793.015 1071.64L792.972 1091.36C781.376 1091.6 769.776 1091.64 758.178 1091.5C759.581 1090.55 770.404 1090.95 772.808 1090.97C773.217 1084.18 773.525 1077.94 773.168 1071.12Z"/><path fill="#B13900" d="M432.662 806.084C441.463 805.307 455.061 805.84 464.282 805.9L515.293 805.911L693.421 805.83L835.959 805.827L877.842 805.839C884.796 805.843 896.502 805.558 903.103 806.348C903.201 812.721 903.745 829.459 902.631 834.9C902.573 838.152 902.016 846.335 903.718 848.845L904.362 849.248C887.219 848.413 863.908 849.132 846.244 849.13L733.004 849.125L433.48 849.249C434.229 845.317 434.125 837.665 434.189 833.384C434.016 827.142 434.149 820.865 434.224 814.619L432.662 806.084Z"/><path fill="#A13600" d="M432.662 806.084C441.463 805.307 455.061 805.84 464.282 805.9L515.293 805.911L693.421 805.83L835.959 805.827L877.842 805.839C884.796 805.843 896.502 805.558 903.103 806.348C903.201 812.721 903.745 829.459 902.631 834.9C902.514 831.786 902.591 828.182 902.59 825.027C871.806 824.152 843.844 824.664 813.251 824.741L688.977 824.773L520.739 824.765C492.482 824.761 462.97 824.29 434.833 824.778C434.697 827.25 434.604 831.052 434.189 833.384C434.016 827.142 434.149 820.865 434.224 814.619L432.662 806.084Z"/><path fill="#7B2B00" d="M432.662 806.084C441.463 805.307 455.061 805.84 464.282 805.9L515.293 805.911L693.421 805.83L835.959 805.827L877.842 805.839C884.796 805.843 896.502 805.558 903.103 806.348C903.201 812.721 903.745 829.459 902.631 834.9C902.514 831.786 902.591 828.182 902.59 825.027L902.668 814.858C852.575 815.554 801.576 814.903 751.404 814.865L434.224 814.619L432.662 806.084Z"/><path fill="#B13900" d="M1018.93 981.309L1019.61 981.919C1019.5 989.579 1019.45 997.24 1019.47 1004.9C1012.78 1004.82 1006.09 1004.76 999.398 1004.75L962.482 1004.76C955.62 1004.57 948.032 1004.73 941.117 1004.75L773.273 1004.78C758.181 1004.67 743.088 1004.68 727.996 1004.8C696.543 1003.47 664.13 1005.53 632.586 1004.69C628.146 1004.57 623.028 1004.76 618.573 1004.95C604.357 1004.06 587.621 1004.67 573.171 1004.74C551.019 1004.1 525.357 1004.69 502.888 1004.69L390.969 1004.78L369.958 1004.89C361.934 1004.43 350.441 1004.78 342.153 1004.78L321.65 1004.82C321.875 996.708 321.917 990.189 321.57 982.085C327.97 981.397 336.299 981.595 342.87 981.567L785.806 981.579L934.743 981.578L982.797 981.526C990.456 981.514 1000.84 981.163 1008.15 981.62C1012.02 981.626 1015.07 981.593 1018.93 981.309Z"/><path fill="#7B2B00" d="M321.57 982.085C327.97 981.397 336.299 981.595 342.87 981.567C344.016 984.923 342.604 1000.93 342.153 1004.78L321.65 1004.82C321.875 996.708 321.917 990.189 321.57 982.085Z"/><path fill="#682600" d="M1018.93 981.309L1019.61 981.919C1019.5 989.579 1019.45 997.24 1019.47 1004.9C1012.78 1004.82 1006.09 1004.76 999.398 1004.75C998.27 999.065 998.624 988.133 998.656 982.006C1002.23 982.044 1004.61 981.904 1008.15 981.62C1012.02 981.626 1015.07 981.593 1018.93 981.309Z"/><path fill="#FE983C" d="M961.403 849.426C977.635 849.371 993.867 849.211 1010.1 848.945L1010.6 849.145L1017.23 849.191C1017.59 850.853 1018.26 853.435 1018.2 855.021L1018.38 860.016C1017.72 867.58 1018.2 885.747 1018.19 894.201C1018.03 916.36 1018.15 938.52 1018.57 960.675L1005.83 960.614C1004.91 931.368 1005.45 898.909 1005.37 869.385L570.048 869.405L443.351 869.396C420.093 869.391 397.913 869.029 374.593 869.475L374.904 849.29L390.853 849.293L433.48 849.249L733.004 849.125L846.244 849.13C863.908 849.132 887.219 848.413 904.362 849.248C911.282 849.256 919.909 849.482 926.684 849.153C938.257 849.138 949.831 849.229 961.403 849.426Z"/><path fill="#A13600" d="M1010.6 849.145L1017.23 849.191C1017.59 850.853 1018.26 853.435 1018.2 855.021C1015.7 854.922 1014.43 855.112 1012.3 853.973C1010.85 852.357 1010.93 851.3 1010.6 849.145Z"/><path fill="#B13900" d="M1017.23 849.191L1030.51 849.253L1030.5 868.739C1034.81 869.486 1036.09 869.489 1040.47 869.403C1040.46 877.439 1039.68 910.438 1041.42 916.355C1041.56 923.613 1041.59 930.874 1041.51 938.133L1041.45 965.644C1041.61 967.221 1041.54 967.782 1042.1 969.258C1042.23 972.912 1041.86 980.711 1038.53 982.794C1035.73 981.149 1023.37 981.72 1019.61 981.919L1018.93 981.309C1018.76 974.672 1018.88 967.44 1018.87 960.757C1019.16 945.447 1018.62 928.644 1018.64 913.072C1018.67 897.002 1019.44 875.876 1018.38 860.016L1018.2 855.021C1018.26 853.435 1017.59 850.853 1017.23 849.191Z"/><path fill="#4B1C00" d="M1018.87 960.757C1024.79 960.544 1035.5 959.391 1040.28 961.626C1041.36 962.833 1041.27 963.986 1041.45 965.644C1041.61 967.221 1041.54 967.782 1042.1 969.258C1042.23 972.912 1041.86 980.711 1038.53 982.794C1035.73 981.149 1023.37 981.72 1019.61 981.919L1018.93 981.309C1018.76 974.672 1018.88 967.44 1018.87 960.757Z"/><path fill="#A13600" d="M311.644 849.241C318.197 849.136 324.752 849.106 331.306 849.151C331.332 851.565 331.687 853.85 330.347 855.757C327.953 857.148 323.29 856.398 320.047 856.296L320.154 869.737L320.186 960.073C320.152 965.421 319.824 976.579 320.698 981.447C314.392 981.847 305.237 981.593 298.724 981.584L298.72 869.339L311.696 869.169L311.644 849.241Z"/><path fill="#FE983C" d="M320.154 869.737C325.643 869.626 331.133 869.633 336.621 869.756C336.966 900.053 337.017 930.352 336.775 960.65C331.376 960.646 325.491 960.82 320.186 960.073L320.154 869.737Z"/><path fill="#D24F04" d="M775.642 889.176C781.806 889.762 788.347 889.618 794.565 889.621L960.043 889.627C960.256 896.743 960.304 903.862 960.186 910.98C953.861 911.171 947.532 911.22 941.204 911.124C941.09 913.417 941.047 916.513 940.585 918.695C940.556 923.071 940.933 941.087 940.026 943.509C946.735 943.669 953.447 943.735 960.158 943.706L960.117 960.664L775.193 960.67L775.174 914.94C775.176 908.298 774.85 895.234 775.642 889.176Z"/><path fill="#A13600" d="M794.565 889.621L960.043 889.627C960.256 896.743 960.304 903.862 960.186 910.98C953.861 911.171 947.532 911.22 941.204 911.124C941.09 913.417 941.047 916.513 940.585 918.695C940.576 917.602 940.553 916.509 940.516 915.417C940.422 913.236 940.755 912.415 939.574 911.307C932.624 910.658 924.008 911.216 916.93 911.345C914.635 911.387 915.055 911.422 913.904 912.77L913.435 911.798C909.651 910.338 803.86 911.097 794.284 911.271C794.51 903.448 793.89 897.99 794.565 889.621Z"/><path fill="#682600" d="M913.904 912.77C915.055 911.422 914.635 911.387 916.93 911.345C924.008 911.216 932.624 910.658 939.574 911.307C940.755 912.415 940.422 913.236 940.516 915.417C940.553 916.509 940.576 917.602 940.585 918.695C940.556 923.071 940.933 941.087 940.026 943.509C934.669 943.677 928.531 943.321 923.308 943.869C908.67 945.406 912.678 923.277 913.904 912.77Z"/><path fill="#B13900" d="M775.642 889.176C781.806 889.762 788.347 889.618 794.565 889.621C793.89 897.99 794.51 903.448 794.284 911.271C788.088 911.599 782.046 911.387 775.851 911.249C775.882 904.155 776.097 896.189 775.642 889.176Z"/><path fill="#E45F0E" d="M794.241 911.86C818.517 911.553 842.053 911.751 866.297 911.733C866.405 916.296 867.335 941.419 865.636 943.542C850.341 943.929 808.479 945.351 794.719 941.993C793.219 931.331 793.875 922.61 794.241 911.86Z"/><path fill="#F6DDB6" d="M384.619 911.359C410.439 910.865 437.704 911.162 463.52 911.387C463.55 915.916 464.17 941.762 462.794 943.673C448.466 943.623 395.124 946.536 386.032 941.415C382.262 936.964 384.4 918.467 384.619 911.359Z"/><path fill="#B13900" d="M960.186 910.98C960.186 921.733 960.364 932.997 960.158 943.706C953.447 943.735 946.735 943.669 940.026 943.509C940.933 941.087 940.556 923.071 940.585 918.695C941.047 916.513 941.09 913.417 941.204 911.124C947.532 911.22 953.861 911.171 960.186 910.98Z"/><path fill="#E4BC84" d="M170.322 442.725L225.988 442.684C225.899 449.595 225.91 456.508 226.023 463.419L241.883 463.522L242.064 532.101L274.291 532.083L274.363 552.383L282.957 552.505C283.008 576.56 283.377 601.206 283.195 625.202L262.113 625.24C261.979 638.838 261.925 652.437 261.951 666.036L254.578 666.071C254.572 671.148 254.812 679.643 254.497 684.419L254.683 687.947C251.596 688.1 235.136 689.046 233.046 687.731L232.915 688.53C217.227 687.364 195.047 688.008 178.925 688.096L178.719 699.028C178.503 702.835 177.56 708.008 179.998 710.795L181.698 711.429L177.397 711.584C170.087 711.521 162.776 711.508 155.466 711.546L135.441 711.504L135.453 674.473C130.167 675.389 126.001 675.619 120.664 675.838L120.506 666.744L110.945 666.603C110.839 659.865 110.921 652.894 110.921 646.136L110.242 645.898L89.4566 645.947L89.3619 554.012C99.0909 553.74 108.824 553.632 118.557 553.687L118.893 551.853C118.147 547.208 118.507 536.534 118.577 531.455L148.018 531.489L148.046 463.485C154.32 463.508 163.088 463.688 169.216 463.128L170.305 462.537C170.309 455.981 170.237 449.266 170.322 442.725Z"/><path fill="#60431F" d="M170.322 442.725L225.988 442.684C225.899 449.595 225.91 456.508 226.023 463.419L241.883 463.522L242.064 532.101L274.291 532.083L274.363 552.383L282.957 552.505C283.008 576.56 283.377 601.206 283.195 625.202L262.113 625.24L242.524 625.169C241.683 618.74 241.929 611.039 241.927 604.466C234.511 604.662 226.848 604.297 219.483 604.732C213.933 605.226 209.889 604.891 204.428 604.175C203.516 598.929 202.183 577.329 203.966 572.751L203.028 571.874C201.438 567.939 201.223 558.147 202.26 553.789C202.514 552.72 202.922 552.915 204.321 552.301C199.176 552.325 171.727 551.799 169.246 553.01L168.74 554.63C168.636 554.266 168.153 553.071 168.003 552.681L165.183 552.018C153.26 550.472 130.863 551.367 118.893 551.853C118.147 547.208 118.507 536.534 118.577 531.455L148.018 531.489L148.046 463.485C154.32 463.508 163.088 463.688 169.216 463.128L170.305 462.537C170.309 455.981 170.237 449.266 170.322 442.725Z"/><path fill="#E4BC84" d="M148.046 463.485C154.32 463.508 163.088 463.688 169.216 463.128C168.655 468.799 168.938 478.468 168.948 484.483C174.132 484.389 180.393 484.114 185.488 484.407C185.499 491.791 185.117 502.447 186.457 509.449C197.315 509.471 211.217 509.856 221.751 508.94L221.779 531.98C221.861 538.718 221.82 545.456 221.658 552.192L204.321 552.301C199.176 552.325 171.727 551.799 169.246 553.01L168.74 554.63C168.636 554.266 168.153 553.071 168.003 552.681L165.183 552.018C153.26 550.472 130.863 551.367 118.893 551.853C118.147 547.208 118.507 536.534 118.577 531.455L148.018 531.489L148.046 463.485Z"/><path fill="#60431F" d="M148.046 463.485C154.32 463.508 163.088 463.688 169.216 463.128C168.655 468.799 168.938 478.468 168.948 484.483C168.99 494.967 170.076 545.072 168.001 551.348C166.445 551.885 166.822 551.822 165.183 552.018C153.26 550.472 130.863 551.367 118.893 551.853C118.147 547.208 118.507 536.534 118.577 531.455L148.018 531.489L148.046 463.485Z"/><path fill="#F6DDB6" d="M240.549 572.505C251.836 571.314 253.928 573.144 262.122 573.01C261.939 590.419 261.937 607.83 262.113 625.24L242.524 625.169C241.683 618.74 241.929 611.039 241.927 604.466C234.511 604.662 226.848 604.297 219.483 604.732C213.933 605.226 209.889 604.891 204.428 604.175C203.516 598.929 202.183 577.329 203.966 572.751L222.952 572.51L240.549 572.505Z"/><path fill="#F6DDB6" d="M170.305 462.537C176.956 462.396 183.609 462.383 190.26 462.498C218.656 462.053 222.321 454.997 221.758 484.106L221.751 508.94C211.217 509.856 197.315 509.471 186.457 509.449C185.117 502.447 185.499 491.791 185.488 484.407C180.393 484.114 174.132 484.389 168.948 484.483C168.938 478.468 168.655 468.799 169.216 463.128L170.305 462.537Z"/><path fill="#FAE9CA" d="M190.26 462.498C218.656 462.053 222.321 454.997 221.758 484.106C210.667 483.428 196.36 483.913 185.06 484.162L184.893 477.835C184.81 474.011 184.238 465.835 186.731 463.235C188.403 463.238 188.818 463.351 190.26 462.498Z"/><path fill="#AB7D54" d="M221.658 552.192L227.258 552.336C232.805 552.33 237.606 552.432 243.133 551.693C241.604 552.548 241.213 552.328 241.042 553.556C240.248 559.271 240.585 566.753 240.549 572.505L222.952 572.51L203.966 572.751L203.028 571.874C201.438 567.939 201.223 558.147 202.26 553.789C202.514 552.72 202.922 552.915 204.321 552.301L221.658 552.192Z"/><path fill="#E4BC84" d="M227.258 552.336C232.805 552.33 237.606 552.432 243.133 551.693C241.604 552.548 241.213 552.328 241.042 553.556C240.248 559.271 240.585 566.753 240.549 572.505L222.952 572.51C222.977 567.436 221.712 557.625 223.68 553.357C224.025 552.609 226.138 552.528 227.258 552.336Z"/><path fill="#FAE9CA" d="M243.133 551.693L262.123 551.784L262.122 573.01C253.928 573.144 251.836 571.314 240.549 572.505C240.585 566.753 240.248 559.271 241.042 553.556C241.213 552.328 241.604 552.548 243.133 551.693Z"/><path fill="#F6DDB6" d="M118.893 551.853C130.863 551.367 153.26 550.472 165.183 552.018L168.003 552.681C168.153 553.071 168.636 554.266 168.74 554.63C168.89 558.204 169.078 561.53 168.906 565.109C169.091 576.615 169.376 591.728 168.918 603.156C162.258 603.069 155.597 603.106 148.939 603.268C148.904 610.035 149.101 618.514 148.763 625.165C141.438 625.281 134.189 625.489 126.87 625.122C120.58 625.079 116.486 624.94 110.221 624.266C110.218 631.327 110.082 638.879 110.242 645.898L89.4566 645.947L89.3619 554.012C99.0909 553.74 108.824 553.632 118.557 553.687L118.893 551.853Z"/><path fill="#60431F" d="M89.3619 554.012C99.0909 553.74 108.824 553.632 118.557 553.687L118.682 555.891C119.009 561.532 118.911 566.852 118.851 572.489C118.682 581.342 118.215 594.294 118.852 603.067L126.811 603.202C126.764 610.211 126.528 618.192 126.87 625.122C120.58 625.079 116.486 624.94 110.221 624.266C110.218 631.327 110.082 638.879 110.242 645.898L89.4566 645.947L89.3619 554.012Z"/><path fill="#BA884D" d="M110.17 603.085L118.852 603.067L126.811 603.202C126.764 610.211 126.528 618.192 126.87 625.122C120.58 625.079 116.486 624.94 110.221 624.266C110.102 617.206 110.085 610.145 110.17 603.085Z"/><path fill="#E4BC84" d="M118.682 555.891C119.009 561.532 118.911 566.852 118.851 572.489C118.682 581.342 118.215 594.294 118.852 603.067L110.17 603.085L110.137 572.506L118.31 572.503C118.285 567.193 118.09 561.101 118.682 555.891Z"/><path fill="#FAE9CA" d="M118.893 551.853C130.863 551.367 153.26 550.472 165.183 552.018L168.003 552.681C168.153 553.071 168.636 554.266 168.74 554.63C168.89 558.204 169.078 561.53 168.906 565.109C168.664 567.784 168.494 569.436 168.582 572.1C152.145 572.638 135.376 572.166 118.851 572.489C118.911 566.852 119.009 561.532 118.682 555.891L118.557 553.687L118.893 551.853Z"/><path fill="#E4BC84" d="M126.811 603.202C132.213 604.115 143.566 604.214 148.939 603.268C148.904 610.035 149.101 618.514 148.763 625.165C141.438 625.281 134.189 625.489 126.87 625.122C126.528 618.192 126.764 610.211 126.811 603.202Z"/><path fill="#D24F04" d="M221.75 665.986C226.138 665.458 228.366 665.478 232.804 665.555C233.641 672.864 233.388 680.395 233.046 687.731L232.915 688.53C217.227 687.364 195.047 688.008 178.925 688.096L178.719 699.028C178.503 702.835 177.56 708.008 179.998 710.795L181.698 711.429L177.397 711.584C170.087 711.521 162.776 711.508 155.466 711.546L135.441 711.504L135.453 674.473L135.957 666.705L135.903 666.359C147.129 666.169 158.358 666.124 169.585 666.223C178.5 666.301 188.055 666.518 196.942 666.308C203.602 666.971 214.907 666.335 221.75 665.986Z"/><path fill="#7B2B00" d="M135.957 666.705L155.589 666.55L155.466 711.546L135.441 711.504L135.453 674.473L135.957 666.705Z"/><path fill="#BA884D" d="M168.74 554.63L169.246 553.01C171.727 551.799 199.176 552.325 204.321 552.301C202.922 552.915 202.514 552.72 202.26 553.789C201.223 558.147 201.438 567.939 203.028 571.874L203.966 572.751C202.183 577.329 203.516 598.929 204.428 604.175C209.889 604.891 213.933 605.226 219.483 604.732C221.794 605.031 220.888 604.557 222.486 605.792C223.843 611.444 223.561 619.546 223.557 625.55C211.267 625.692 199.624 625.465 187.353 625.239L187.337 603.148L168.918 603.156C169.376 591.728 169.091 576.615 168.906 565.109C169.078 561.53 168.89 558.204 168.74 554.63Z"/><path fill="#60431F" d="M242.524 625.169L262.113 625.24C261.979 638.838 261.925 652.437 261.951 666.036L254.578 666.071C254.572 671.148 254.812 679.643 254.497 684.419L254.683 687.947C251.596 688.1 235.136 689.046 233.046 687.731C233.388 680.395 233.641 672.864 232.804 665.555C232.323 658.693 232.763 652.721 233.243 645.921L242.3 645.777C242.304 638.907 242.378 632.037 242.524 625.169Z"/><path fill="#7B2B00" d="M232.804 665.555C239.637 665.527 247.325 665.332 254.079 665.595C254.042 668.535 253.571 682.674 254.497 684.419L254.683 687.947C251.596 688.1 235.136 689.046 233.046 687.731C233.388 680.395 233.641 672.864 232.804 665.555Z"/><path fill="#AB7D54" d="M110.221 624.266C116.486 624.94 120.58 625.079 126.87 625.122C134.189 625.489 141.438 625.281 148.763 625.165C148.688 630.318 148.47 636.683 148.895 641.738C148.912 644.503 149.364 644.023 147.954 645.485C142.286 646.865 135.89 645.824 129.82 645.923C129.783 651.724 129.99 659.657 129.681 665.22C132.234 666.449 132.965 666.273 135.903 666.359L135.957 666.705L135.453 674.473C130.167 675.389 126.001 675.619 120.664 675.838L120.506 666.744L110.945 666.603C110.839 659.865 110.921 652.894 110.921 646.136L110.242 645.898C110.082 638.879 110.218 631.327 110.221 624.266Z"/><path fill="#60431F" d="M110.921 646.136C117.018 645.966 123.119 645.894 129.219 645.922C129.163 650.558 128.826 661.1 129.681 665.22C132.234 666.449 132.965 666.273 135.903 666.359L135.957 666.705L135.453 674.473C130.167 675.389 126.001 675.619 120.664 675.838L120.506 666.744L110.945 666.603C110.839 659.865 110.921 652.894 110.921 646.136Z"/><path fill="#BA884D" d="M168.918 603.156L169.043 603.869L168.992 624.995C162.278 625.349 155.752 625.126 149.095 625.316C149.171 630.574 149.42 636.569 148.895 641.738C148.47 636.683 148.688 630.318 148.763 625.165C149.101 618.514 148.904 610.035 148.939 603.268C155.597 603.106 162.258 603.069 168.918 603.156Z"/><path fill="#7F5427" d="M221.626 646.014L233.243 645.921C232.763 652.721 232.323 658.693 232.804 665.555C228.366 665.478 226.138 665.458 221.75 665.986C222.309 659.093 222.024 652.868 221.626 646.014Z"/><path fill="#FE7619" d="M1041.38 778.669C1048.93 778.632 1056.72 778.487 1064.25 778.718C1071.67 778.763 1079.57 778.687 1086.95 778.932C1094.29 779.089 1101.64 779.127 1108.98 779.048C1108.96 786.656 1109.11 794.263 1109.41 801.865L1110.08 802.211L1130.88 802.111C1130.86 817.262 1130.41 834.069 1131.06 848.972L1132.09 849.315L1152.7 849.288C1152.41 863.917 1152.33 878.549 1152.48 893.18L1152.54 915.128C1149.75 914.606 1142.39 914.679 1139.2 914.634L1132.23 914.77L1084.15 914.789C1072.26 914.937 1059.41 915.127 1047.59 914.356C1045.35 914.987 1043.55 915.425 1041.42 916.355C1039.68 910.438 1040.46 877.439 1040.47 869.403C1036.09 869.489 1034.81 869.486 1030.5 868.739L1030.51 849.253L1030.52 824.803L1020.05 824.653L1020.1 802.828C1029.05 801.83 1032.51 802.046 1041.51 802.992C1041.53 794.884 1041.49 786.776 1041.38 778.669Z"/><path fill="#682600" d="M1020.1 802.828C1029.05 801.83 1032.51 802.046 1041.51 802.992L1041.51 824.605L1051.26 824.933C1051.82 832.169 1051.48 841.894 1051.45 849.397C1051.36 863.69 1051.39 877.982 1051.54 892.274C1057.76 891.712 1066.99 892.157 1073.44 892.282C1076.89 892.448 1080.34 892.586 1083.8 892.696C1084.19 898.899 1084.95 908.83 1084.15 914.789C1072.26 914.937 1059.41 915.127 1047.59 914.356C1045.35 914.987 1043.55 915.425 1041.42 916.355C1039.68 910.438 1040.46 877.439 1040.47 869.403C1036.09 869.489 1034.81 869.486 1030.5 868.739L1030.51 849.253L1030.52 824.803L1020.05 824.653L1020.1 802.828Z"/><path fill="#B13900" d="M1051.54 892.274C1057.76 891.712 1066.99 892.157 1073.44 892.282C1076.89 892.448 1080.34 892.586 1083.8 892.696C1084.19 898.899 1084.95 908.83 1084.15 914.789C1072.26 914.937 1059.41 915.127 1047.59 914.356C1051.16 913.855 1058.93 914.231 1062.83 914.312L1063.04 892.754C1059.07 892.679 1055.51 892.617 1051.54 892.274Z"/><path fill="#D24F04" d="M1083.8 892.696C1099.02 892.811 1117.13 893.284 1132.08 892.452L1132.18 893.124C1136.73 892.659 1147.97 892.427 1152.48 893.18L1152.54 915.128C1149.75 914.606 1142.39 914.679 1139.2 914.634L1132.23 914.77L1084.15 914.789C1084.95 908.83 1084.19 898.899 1083.8 892.696Z"/><path fill="#7B2B00" d="M1132.18 893.124C1136.73 892.659 1147.97 892.427 1152.48 893.18L1152.54 915.128C1149.75 914.606 1142.39 914.679 1139.2 914.634C1136.75 914.534 1135.46 914.438 1133.05 914.065C1131.18 912.095 1132.11 896.771 1132.18 893.124Z"/><path fill="#D24F04" d="M1051.26 824.933C1056.19 825.035 1060.06 825.021 1064.98 824.753L1073.45 824.795L1073.44 892.282C1066.99 892.157 1057.76 891.712 1051.54 892.274C1051.39 877.982 1051.36 863.69 1051.45 849.397C1051.48 841.894 1051.82 832.169 1051.26 824.933Z"/><path fill="#E45F0E" d="M1041.38 778.669C1048.93 778.632 1056.72 778.487 1064.25 778.718C1064.44 792.237 1064.09 811.753 1064.98 824.753C1060.06 825.021 1056.19 825.035 1051.26 824.933L1041.51 824.605L1041.51 802.992C1041.53 794.884 1041.49 786.776 1041.38 778.669Z"/><path fill="#8C3200" d="M1110.08 802.211L1130.88 802.111C1130.86 817.262 1130.41 834.069 1131.06 848.972C1124.08 848.931 1117.1 848.956 1110.12 849.045C1110.2 839.828 1110.17 830.611 1110.02 821.396C1110.32 815.053 1110.15 808.57 1110.08 802.211Z"/><path fill="#8C3200" d="M1132.09 849.315L1152.7 849.288C1152.41 863.917 1152.33 878.549 1152.48 893.18C1147.97 892.427 1136.73 892.659 1132.18 893.124L1132.08 892.452C1132.83 880.266 1132.56 861.567 1132.09 849.315Z"/><path fill="#FE983C" d="M1089.17 801.824C1095.39 801.262 1102.96 801.856 1109.41 801.865L1110.08 802.211C1110.15 808.57 1110.32 815.053 1110.02 821.396C1108.97 827.931 1109.95 835.028 1108.27 844.526L1107.71 843.853C1107.8 842.181 1107.86 841.383 1107.56 839.726C1106.71 835.115 1107.04 829.523 1107.1 824.73L1087.07 824.75C1087.36 819.505 1086.81 806.824 1087.81 802.583L1089.17 801.824Z"/><path fill="#8C3200" d="M1086.95 778.932C1094.29 779.089 1101.64 779.127 1108.98 779.048C1108.96 786.656 1109.11 794.263 1109.41 801.865C1102.96 801.856 1095.39 801.262 1089.17 801.824C1088.96 801.757 1088.73 801.741 1088.55 801.625C1086.36 800.215 1087.31 782.574 1086.95 778.932Z"/><path fill="#F6DDB6" d="M1047.59 914.356C1059.41 915.127 1072.26 914.937 1084.15 914.789L1132.23 914.77L1139.2 914.634C1142.39 914.679 1149.75 914.606 1152.54 915.128L1153.2 915.393C1159.91 915.363 1166.62 915.383 1173.33 915.453L1173.36 988.46L1152.95 988.451C1152.88 995.364 1152.88 1002.28 1152.94 1009.19C1145.81 1009.32 1138.68 1009.42 1131.54 1009.46L1130.95 1009.68L1130.98 1029.98C1108.71 1029.83 1086.43 1029.81 1064.15 1029.92L1064.03 1009.74L1063.02 1009.28L1042.66 1009.1C1042.61 1003.55 1042.84 993.927 1041.28 988.948C1038.15 985.91 1038.59 986.675 1038.53 982.794C1041.86 980.711 1042.23 972.912 1042.1 969.258C1041.54 967.782 1041.61 967.221 1041.45 965.644L1041.51 938.133C1041.59 930.874 1041.56 923.613 1041.42 916.355C1043.55 915.425 1045.35 914.987 1047.59 914.356Z"/><path fill="#E4BC84" d="M1041.51 938.133C1048.67 938.066 1055.83 938.061 1062.99 938.121L1063.06 968.664L1085 968.605L1085.01 988.372C1093.21 988.668 1101.92 988.784 1110.1 988.127C1109.89 982.326 1109.99 975.765 1109.95 969.907C1120.33 969.967 1143.72 970.616 1153 969.196C1153.06 975.415 1153.28 982.294 1152.95 988.451C1152.88 995.364 1152.88 1002.28 1152.94 1009.19C1145.81 1009.32 1138.68 1009.42 1131.54 1009.46L1130.95 1009.68L1130.98 1029.98C1108.71 1029.83 1086.43 1029.81 1064.15 1029.92L1064.03 1009.74L1063.02 1009.28L1042.66 1009.1C1042.61 1003.55 1042.84 993.927 1041.28 988.948C1038.15 985.91 1038.59 986.675 1038.53 982.794C1041.86 980.711 1042.23 972.912 1042.1 969.258C1041.54 967.782 1041.61 967.221 1041.45 965.644L1041.51 938.133Z"/><path fill="#60431F" d="M1064.03 1009.74C1079.62 1009.26 1094.5 1009.52 1110.08 1009.63C1116.71 1009.64 1124.41 1009.47 1130.95 1009.68L1130.98 1029.98C1108.71 1029.83 1086.43 1029.81 1064.15 1029.92L1064.03 1009.74Z"/><path fill="#60431F" d="M1042.1 969.258C1045.06 969.507 1044.96 969.031 1047 970.506C1048.79 974.912 1048.01 982.785 1048.3 988.357L1063.13 988.726C1063.45 995.133 1063.95 1003.03 1063.02 1009.28L1042.66 1009.1C1042.61 1003.55 1042.84 993.927 1041.28 988.948C1038.15 985.91 1038.59 986.675 1038.53 982.794C1041.86 980.711 1042.23 972.912 1042.1 969.258Z"/><path fill="#60431F" d="M1131.63 988.28C1138.1 988.315 1146.63 988.129 1152.95 988.451C1152.88 995.364 1152.88 1002.28 1152.94 1009.19C1145.81 1009.32 1138.68 1009.42 1131.54 1009.46C1131.89 1006.96 1131.45 992.602 1131.63 988.28Z"/><path fill="#BA884D" d="M1113.12 988.234C1119.06 988.365 1125.98 988.029 1131.63 988.28C1131.45 992.602 1131.89 1006.96 1131.54 1009.46L1130.95 1009.68C1124.41 1009.47 1116.71 1009.64 1110.08 1009.63C1111.74 1005.11 1109.15 994.412 1110.79 989.417C1111.08 988.534 1111.78 988.658 1113.12 988.234Z"/><path fill="#60431F" d="M1153.2 915.393C1159.91 915.363 1166.62 915.383 1173.33 915.453L1173.36 988.46L1152.95 988.451C1153.28 982.294 1153.06 975.415 1153 969.196L1153.11 937.103C1153.01 929.866 1153.04 922.629 1153.2 915.393Z"/><path fill="#FAE9CA" d="M1139.2 914.634C1142.39 914.679 1149.75 914.606 1152.54 915.128L1153.2 915.393C1153.04 922.629 1153.01 929.866 1153.11 937.103C1148.86 937.612 1137.59 936.842 1132.19 936.944L1132.23 914.77L1139.2 914.634Z"/><path fill="#FE7619" d="M232.915 688.53L233.046 687.731C235.136 689.046 251.596 688.1 254.683 687.947C262.475 688.821 271.617 687.89 279.654 688.48C279.704 695.579 279.632 703.121 279.838 710.181C287.59 709.972 295.346 709.968 303.098 710.169C303.278 716.086 303.051 727.747 303.474 732.885C304.078 739.64 303.7 750.444 303.703 757.539C303.759 762.147 304.135 775.512 303.207 779.411L303.577 779.532C303.296 782.933 303.357 798.151 304.829 800.564C306.446 801.141 306.535 801.158 308.243 801.358L308.354 802.016C284.641 803.316 254.393 802.225 230.064 802.223C230.045 795.415 230.073 788.608 230.146 781.801L203.963 781.74C204.065 775.669 204.099 769.597 204.064 763.525L184.952 763.506L184.937 747.099L184.457 746.855C177.098 746.76 173.458 746.749 166.336 748.395L167.309 733.878C162.414 733.011 160.343 732.941 155.325 732.889L155.466 711.546C162.776 711.508 170.087 711.521 177.397 711.584L181.698 711.429L179.998 710.795C177.56 708.008 178.503 702.835 178.719 699.028L178.925 688.096C195.047 688.008 217.227 687.364 232.915 688.53Z"/><path fill="#E45F0E" d="M232.915 688.53L233.046 687.731C235.136 689.046 251.596 688.1 254.683 687.947C262.475 688.821 271.617 687.89 279.654 688.48C279.704 695.579 279.632 703.121 279.838 710.181C287.59 709.972 295.346 709.968 303.098 710.169C303.278 716.086 303.051 727.747 303.474 732.885C304.078 739.64 303.7 750.444 303.703 757.539C303.759 762.147 304.135 775.512 303.207 779.411C295.714 779.689 287.012 779.482 279.426 779.474L246.422 779.388C249.38 778.685 252.316 778.801 255.372 778.749C255.605 763.471 255.537 748.19 255.17 732.914L232.057 732.812C231.839 724.95 231.566 718.127 232.13 710.277L210.023 710.446L209.97 699.906C199.034 699.92 189.576 700.813 178.719 699.028L178.925 688.096C195.047 688.008 217.227 687.364 232.915 688.53Z"/><path fill="#D24F04" d="M254.683 687.947C262.475 688.821 271.617 687.89 279.654 688.48C279.704 695.579 279.632 703.121 279.838 710.181C287.59 709.972 295.346 709.968 303.098 710.169C303.278 716.086 303.051 727.747 303.474 732.885C304.078 739.64 303.7 750.444 303.703 757.539C303.759 762.147 304.135 775.512 303.207 779.411C295.714 779.689 287.012 779.482 279.426 779.474C279.381 763.89 280.019 748.558 279.821 732.868C270.975 732.412 264.152 732.348 255.388 732.854C255.548 725.54 255.39 717.679 255.366 710.321L255.747 710.208C255.046 708.32 254.838 691.384 254.683 687.947Z"/><path fill="#7B2B00" d="M254.683 687.947C262.475 688.821 271.617 687.89 279.654 688.48C279.704 695.579 279.632 703.121 279.838 710.181C272.026 710.464 263.619 710.267 255.747 710.208C255.046 708.32 254.838 691.384 254.683 687.947Z"/><path fill="#682600" d="M279.838 710.181C287.59 709.972 295.346 709.968 303.098 710.169C303.278 716.086 303.051 727.747 303.474 732.885L279.806 732.887L279.838 710.181Z"/><path fill="#B13900" d="M232.915 688.53L233.046 687.731C235.136 689.046 251.596 688.1 254.683 687.947C254.838 691.384 255.046 708.32 255.747 710.208L255.366 710.321C248.468 709.947 239.703 710.156 232.654 710.162C232.932 703.078 232.868 695.645 232.915 688.53Z"/><path fill="#7B2B00" d="M184.937 747.099C192.029 747.044 199.36 746.896 206.43 746.968L206.443 756.786L230.024 756.772L230.17 779.35L241 779.514L246.422 779.388L279.426 779.474C287.012 779.482 295.714 779.689 303.207 779.411L303.577 779.532C303.296 782.933 303.357 798.151 304.829 800.564C306.446 801.141 306.535 801.158 308.243 801.358L308.354 802.016C284.641 803.316 254.393 802.225 230.064 802.223C230.045 795.415 230.073 788.608 230.146 781.801L203.963 781.74C204.065 775.669 204.099 769.597 204.064 763.525L184.952 763.506L184.937 747.099Z"/><path fill="#7B2B00" d="M155.466 711.546C162.776 711.508 170.087 711.521 177.397 711.584C177.827 718.052 177.593 726.312 177.403 732.882C180.087 732.966 182.067 732.684 184.182 734.177C186.792 737.898 185.223 741.939 184.457 746.855C177.098 746.76 173.458 746.749 166.336 748.395L167.309 733.878C162.414 733.011 160.343 732.941 155.325 732.889L155.466 711.546Z"/><path fill="#B13900" d="M181.698 711.429L183.47 711.775C185.307 714.617 184.151 728.215 184.648 733.288C192.067 733.517 199.489 733.595 206.911 733.52C206.751 737.922 206.498 742.589 206.43 746.968C199.36 746.896 192.029 747.044 184.937 747.099L184.457 746.855C185.223 741.939 186.792 737.898 184.182 734.177C182.067 732.684 180.087 732.966 177.403 732.882C177.593 726.312 177.827 718.052 177.397 711.584L181.698 711.429Z"/><path fill="#E45F0E" d="M230.024 756.772L240.766 756.755C240.791 764.202 240.684 772.117 241 779.514L230.17 779.35L230.024 756.772Z"/><path fill="#682600" d="M1026.27 756.92L1030.94 757.307C1033.68 756.755 1038.61 756.858 1041.56 756.813C1042.14 764.001 1041.78 771.47 1041.38 778.669C1041.49 786.776 1041.53 794.884 1041.51 802.992C1032.51 802.046 1029.05 801.83 1020.1 802.828L1019.6 802.144C1014.93 802.285 1003.22 803.407 999.804 800.194C999.191 799.617 998.435 797.919 998.069 797.124C995.946 796.294 994.179 796.649 991.872 796.797L991.987 824.705L1009.47 824.755C1009.59 831.207 1009.36 843.065 1010.1 848.945C993.867 849.211 977.635 849.371 961.403 849.426C949.831 849.229 938.257 849.138 926.684 849.153C919.909 849.482 911.282 849.256 904.362 849.248L903.718 848.845C902.016 846.335 902.573 838.152 902.631 834.9C903.745 829.459 903.201 812.721 903.103 806.348C922.868 806.605 942.635 806.587 962.399 806.292C962.889 799.964 962.667 792.607 962.632 786.187L981.44 786.162C982.417 777.569 982.106 766.218 982.08 757.313L1003.35 757.374C1010.97 757.623 1018.69 757.815 1026.27 756.92Z"/><path fill="#B13900" d="M991.987 824.705L1009.47 824.755C1009.59 831.207 1009.36 843.065 1010.1 848.945C993.867 849.211 977.635 849.371 961.403 849.426C961.528 841.183 961.417 832.938 961.07 824.701L991.987 824.705Z"/><path fill="#B13900" d="M982.08 757.313L1003.35 757.374L1003.57 786.206L981.44 786.162C982.417 777.569 982.106 766.218 982.08 757.313Z"/><path fill="#8C3200" d="M940.229 824.811L961.07 824.701C961.417 832.938 961.528 841.183 961.403 849.426C949.831 849.229 938.257 849.138 926.684 849.153C930.646 848.283 935.988 848.51 940.166 848.517C940.363 840.787 940.232 832.579 940.229 824.811Z"/><path fill="#8C3200" d="M1024.81 778.803L1041.38 778.669C1041.49 786.776 1041.53 794.884 1041.51 802.992C1032.51 802.046 1029.05 801.83 1020.1 802.828L1019.6 802.144C1019.3 798.537 1019.18 782.931 1019.71 779.564C1021.26 778.605 1022.69 778.906 1024.81 778.803Z"/><path fill="#7B2B00" d="M1030.94 757.307C1033.68 756.755 1038.61 756.858 1041.56 756.813C1042.14 764.001 1041.78 771.47 1041.38 778.669L1024.81 778.803L1029.36 777.849C1030.08 776.341 1030.43 761.475 1030.84 758.09L1030.94 757.307Z"/><path fill="#682600" d="M303.703 757.539L324.719 757.388C332.836 757.412 341.54 757.282 349.608 757.502L349.563 786.186L371.585 786.187C371.315 792.799 370.83 799.785 371.405 806.34C391.079 805.997 413.866 806.854 432.662 806.084L434.224 814.619C434.149 820.865 434.016 827.142 434.189 833.384C434.125 837.665 434.229 845.317 433.48 849.249L390.853 849.293L374.904 849.29L371.965 849.258C359.965 849.48 344.196 849.81 332.336 849.093C332.698 841.59 332.497 832.392 332.524 824.759L349.681 824.644C349.584 815.398 349.697 805.97 349.713 796.708C346.162 796.602 342.628 795.968 340.551 798.372C335.621 804.08 317.236 802.173 308.354 802.016L308.243 801.358C306.535 801.158 306.446 801.141 304.829 800.564C303.357 798.151 303.296 782.933 303.577 779.532L303.207 779.411C304.135 775.512 303.759 762.147 303.703 757.539Z"/><path fill="#B13900" d="M349.681 824.644C356.973 824.757 364.265 824.78 371.557 824.713C371.536 833.286 371.687 840.739 371.965 849.258C359.965 849.48 344.196 849.81 332.336 849.093C332.698 841.59 332.497 832.392 332.524 824.759L349.681 824.644Z"/><path fill="#8C3200" d="M371.557 824.713L390.532 824.803C390.613 831.972 390.389 842.407 390.853 849.293L374.904 849.29L371.965 849.258C371.687 840.739 371.536 833.286 371.557 824.713Z"/><path fill="#8C3200" d="M303.703 757.539L324.719 757.388C324.749 764.667 324.867 771.945 325.076 779.22C318.243 779.117 310.295 778.824 303.577 779.532L303.207 779.411C304.135 775.512 303.759 762.147 303.703 757.539Z"/><path fill="#8C3200" d="M1047.33 755.838C1053.69 755.621 1060.77 755.919 1067.22 755.963C1073.22 756.005 1080.74 755.578 1086.51 755.936C1086.54 761.195 1086.25 774.524 1086.95 778.932C1079.57 778.687 1071.67 778.763 1064.25 778.718C1056.72 778.487 1048.93 778.632 1041.38 778.669C1041.78 771.47 1042.14 764.001 1041.56 756.813L1047.33 755.838Z"/><path fill="#4B1C00" d="M369.958 1004.89L390.969 1004.78C390.712 1010.1 390.367 1019.15 390.771 1024.53L390.596 1027.51C387.545 1027.59 382.17 1027.6 379.356 1027.96C376.686 1027.8 372.568 1028.03 369.785 1028.1C369.959 1020.45 369.913 1012.56 369.958 1004.89Z"/></svg>
